<svg xmlns="http://www.w3.org/2000/svg" viewBox="0 0 400 400" role="img" aria-label="Imagem indisponivel">
  <defs>
    <linearGradient id="bg" x1="0" y1="0" x2="1" y2="1">
      <stop offset="0" stop-color="#FDF6EE"/>
      <stop offset="1" stop-color="#F0E2D0"/>
    </linearGradient>
  </defs>
  <rect width="400" height="400" fill="url(#bg)"/>
  <g fill="none" stroke="#B87333" stroke-width="6" stroke-linecap="round" stroke-linejoin="round" opacity="0.55">
    <path d="M96 236v-52a20 20 0 0 1 20-20h168a20 20 0 0 1 20 20v52"/>
    <path d="M80 236h240a16 16 0 0 1 16 16v36H64v-36a16 16 0 0 1 16-16z"/>
    <path d="M84 288v28M316 288v28"/>
    <path d="M132 164v-14a14 14 0 0 1 14-14h44a14 14 0 0 1 14 14v14"/>
  </g>
  <text x="200" y="348" font-family="Georgia, 'Times New Roman', serif" font-size="22" letter-spacing="4" text-anchor="middle" fill="#8B4513" opacity="0.7">PV CASA</text>
</svg>
